<svg height="512" viewBox="0 0 512 512" width="512" xmlns="http://www.w3.org/2000/svg"><g id="flat"><path d="m160 232h288v256h-288z" fill="#ea9d2d"/><path d="m242.51 232-82.51 68.58v-68.58z" fill="#d18d28"/><circle cx="432" cy="40" fill="#43dcfe" r="16"/><circle cx="384" cy="216" fill="#43dcfe" r="16"/><path d="m464 96a8 8 0 0 1 -5.657-13.657l16-16a8 8 0 0 1 11.314 11.314l-16 16a7.976 7.976 0 0 1 -5.657 2.343z" fill="#0276b4"/><path d="m120 144a7.976 7.976 0 0 1 -5.657-2.343l-16-16a8 8 0 0 1 11.314-11.314l16 16a8 8 0 0 1 -5.657 13.657z" fill="#0276b4"/><path d="m12.616 170.968h320v80h-320z" fill="#ea9d2d" transform="matrix(.769 -.639 .639 .769 -94.983 159.057)"/><path d="m160 328h288v64h-288z" fill="#961b20"/><path d="m272 232h64v256h-64z" fill="#e82f3e"/><path d="m343.6 35.777 13.315 40.98h43.085a7.986 7.986 0 0 1 4.693 14.443l-34.859 25.33 13.315 40.98a7.987 7.987 0 0 1 -12.29 8.929l-34.859-25.327-34.859 25.327a7.987 7.987 0 0 1 -12.29-8.929l13.315-40.98-34.859-25.33a7.986 7.986 0 0 1 4.693-14.443h43.09l13.315-40.98a7.986 7.986 0 0 1 15.195 0z" fill="#fbb540"/><path d="m435.977 133.001h47.916v32h-47.916z" fill="#02a437" transform="matrix(.671 .742 -.742 .671 262.077 -292.126)"/><path d="m155.977 43.497h47.916v32h-47.916z" fill="#02a437" transform="matrix(.769 -.639 .639 .769 3.526 128.753)"/><path d="m304 208a7.976 7.976 0 0 1 -5.657-2.343l-8-8a8 8 0 0 1 11.314-11.314l8 8a8 8 0 0 1 -5.657 13.657z" fill="#faa6b2"/><path d="m280 48a7.976 7.976 0 0 1 -5.657-2.343l-8-8a8 8 0 0 1 11.314-11.314l8 8a8 8 0 0 1 -5.657 13.657z" fill="#faa6b2"/><circle cx="216" cy="128" fill="#e82f3e" r="16"/></g></svg>